<svg xmlns="http://www.w3.org/2000/svg" width="2111" height="1574" viewBox="0 0 2111 1574">
  <defs>
    <style>
      .cls-1 {
        fill: #003676;
        fill-rule: evenodd;
      }
    </style>
  </defs>
  <path id="main_color" class="cls-1" d="M576,992c0.25,16.58-5.89,30.46-17,36-1.9-1.37-1.636-.97-3-3-1.471-4.57.817-10.08-2-14-0.667.33-1.333,0.67-2,1q-10.5,16.5-21,33c-3.635-.64-3.027-0.4-5-2,37.386-66.325,64.462-135.145,104-198l54-74,28-31v-1c-69.319.185-68.03,32.749-93,75-25.512,43.168-51.259,90.069-72,137l-29,62v-2c-9.5-21.688,5.912-48.144,12-62,19.167-43.624,45.023-82.924,59-130,7.98-26.879-5.069-58.655,3-86,5.672-19.222,42.1-52.093,29-73v-2c-14.091,2.864-20.744,12.214-36,15-0.907-62.1-13.248-84.819,14-130,3.857-6.395,5.986-13.92,12-18,16.992-11.526,48.872.377,65-10,5.311-17.414,8.628-54.213,4-73-8.581-6.348-15.867-6.209-28-8v-8l29-1c1.957-3.942,4.5-10.5,2-16q-1-2-2-4c-13.38-1.971-34.06.351-37-13l2-1c15.326-2.194,33.761,4.1,40-9,4.186-8.742-.853-23.364,3-32,5.459-1.012,7.05-.337,11,2,0.944,10.517-1.238,22.861,1,34,7.161,4.807,16.669,2.39,25,6q-1,4.5-2,9c-7.134,1.141-15.626,2.084-21,4-9.586,20.67-3.2,69.565-3,99l3-1c32.992-42.659,87.7-78.952,135-107l53-26c14.114-10.768,18.759-34.5,33-46,13.312-10.746,73.614-42.794,71-59-9.741-3.561-23.39-2.878-31-8v-1q0.5-1.5,1-3c9.01-2.2,23.645.313,31-4q0.5-1,1-2c0.477-7.749.278-12.936-4-16l-34-5q-0.5-1.5-1-3l3-7c15.639,0.782,32.465,3.877,38-8,4.33-8.516-2.791-26.577,5-32h8q0.5,45,1,90c9.86-.851,71.93-16.184,75-22,6.2-6.955,6.13-37.268,1-46-18.33,5.467-53.87-16.141-59-26-1.49-5.195-.25-10.178,1-15,11.33-3.231,42.47-3.476,52,1-0.33,2.666-.67,5.334-1,8-0.67,1-1.33,2-2,3l-32,2h2q20.505,11,41,22V59c0-17-3.9-44.888,2-58,25.59-4.584,16.68,27.244,20,47q5.505,56.994,11,114,2.505,18.5,5,37v-2c10.32-11.3,27.26-16.518,37-28-12.01.343-28.58,1.433-36-3,0.33-2.333.67-4.667,1-7,0.67-1,1.33-2,2-3,16.08-.208,36.08-1.218,49,2,1.33,2.333,2.67,4.667,4,7q-1.005,5-2,10c-17.97,10.167-28.31,26.213-56,27,0.58,11.065-.77,39.224,7,44,12.24,9.211,97.13,1.445,119,8,30.99,9.289,35.93,43.96,65,56,20.53,8.5,46.74,5.864,72,11,44.63,9.075,89.69,16.71,127,33,39.52,17.254,78.36,45.765,88,93,4.73,23.2-4.74,75.937,6,92,11.1,16.6,81.82,39.279,106,46,15.02,4.175,34.39,4.472,46,12v20c12.33,14.678,55.88,4.459,79,8,70.04,10.728,153.69-3.974,187,43,40.32,56.866,26.33,145.709-10,194q-45.99,50-92,100c-74.38,93.02-145.54,187.09-215,286-27.85,39.66-61.05,79.9-82,125,34.74-8.25,97.96-36.17,139-22,23.72,8.19,31.65,28.28,49,42,14.21,11.23,32.72,18.97,53,24,49.98,12.4,124.21,5.4,153,39-32.29-.05-60.46.58-88,6-31.77,6.26-73.65,17.02-110,8-47.2-11.72-61.84-47.99-111-56-42.26-6.89-82.48,27.38-139,18l-141-27c-21.93-4.75-52.07-13.01-81-8-33.27,5.76-58.2,18-75,40-14.13,18.52-20.26,43.08-45,51-25.85,8.28-62-1.29-87-6l-136-15q-35.5-1.005-71-2-36.5,4.995-73,10-50,16.005-100,32c-81.332,24.28-217.959,31.32-309,10,10.794-8.32,32.305-5.86,48-9q61.494-11.505,123-23c45.623-11.35,94.631-17.36,138-31q35-14.505,70-29c26.236-10.33,55.31-13.67,87-19,20.514-3.45,46.839-2.19,66,1,45.65,7.6,87.54,5.13,131,13,20.06,3.63,47.8,9.51,68,5,15.91-24.19,15.79-53.79,44-66,29.11-12.6,83.39-9.37,117-3q47.49,7.5,95,15c39.82,8.67,85.82,18.2,134,14q9.495-22.005,19-44c17.96-41.02,37.49-80.4,55-120,52.55-118.87,115.36-233.382,180-343q37.5-65.994,75-132c8.87-14.984,26.63-34.23,22-58-20.12-20.871-101.33-14-143-14-133.72,0-265.07,2.6-381,24-90.62,16.727-174.97,26.662-256,51-297.757,89.431-530.122,239.351-701,455-28.693,36.21-59.366,73.13-79,118q-15.5,45.99-31,92c-3.486-89.72,31.46-146.2,66-201a692.512,692.512,0,0,1,150-168c33.91-27.26,62.418-62.051,97-89l82-62q-2-53-4-106c-51.243,26.2-100.254,97.291-132,145-12.33,18.53-31.49,40.114-34,67l6-8h5ZM1010,89l69,1c0.33,1,.67,2,1,3,5.29,19.981-37.89,1.882-44,13,13.4,2.831,55.06,12.449,46,31h-1c-22.45-2.474-55.97-17.487-73-29C1007.22,101.146,1007.27,94.456,1010,89Zm120,0,66,1c1.92,1.392.6,0.1,2,2,4.41,6.321,1,15.375-2,20-14.74,4.824-57.34,28.553-69,22-0.33-2.666-.67-5.334-1-8,10.4-9.661,31.89-15.918,47-20v-4h-15l-29-1-3-2c0.33-3,.67-6,1-9Zm386,59,29,2c-0.67.333-1.33,0.667-2,1-20.41,12.092-38.53,17.158-48,40-4.02,9.7-4.26,22.518-9,31-16.16,2.235-39.2-7.074-58-10-28.51-4.437-50.95,10.651-73,7v-3c32.41-13.426,66.94-37,117-20l6-19C1485.89,157.744,1496.43,156.139,1516,148ZM565,160c25.1-.233,41.344,5.1,55,16,8.322,6.642,12.193,17.572,25,20,12.5,2.371,21.235-6.937,31-9,35.984-7.6,93.366-3.262,113,16-34.8-.364-70.786-4.8-101,3-19.437,5.015-34.364,19.05-53,22-14.92-15.49-24.08-34.343-42-47-11.452-8.089-27.126-10.733-39-19Zm560,108c-18.58,6.91-43.69,2.193-61,9-20.51,8.065-29.35,25.3-46,35-0.04-7.391-1.04-11.018-8-12l-69,46,2,2v2l113-28c66.24-14.761,142.59-15.373,220-14-0.33-1-.67-2-1-3-7.23-7.259-11.02-17.441-20-23C1231.53,267.475,1162.22,267.918,1125,268Zm76,63-36,1-90,9c-117.383,23.5-212.672,57.218-293,116-16.255,11.895-62.074,43.7-67,63l28,1c14.211-2.976,24.131-13.336,35-20l72-38c63.093-27.574,131.87-44.072,209-59,107.35-20.777,270.27-19.166,374,3l98,23q24.495,7.5,49,15c-7.32-20.021-16.75-37.116-32-49C1479.9,342.915,1320.83,331.583,1201,331Zm136,73c-5.12,2.665-8.39,2.683-11,8v45c3.22,5.047,10.95,4.555,18,6s12.33,2.587,18-1C1368.58,433.865,1364.46,405.456,1337,404Zm-152,1-23,3-3,5c-2.03,10.1-1.16,37.989,4,47,10.15,1.743,27.25,3.045,32-4,5.26-8.328,3.13-38.483,1-49ZM997,425c-9.105,4.231-19.63,2.887-24,12-2.82,10.934-2.884,38.712,1,47,12.2,1.71,31.39.48,36-9,4.97-8.8,1.7-38.77-1-49Zm490,11c-3.92,10.958-4.76,44.213,2,52,4.94,7.033,19.57,8.7,27,13,0.18-18.428,2.46-40.837-1-55C1507.54,440.643,1499.52,436.573,1487,436Zm-297,33-52,3-100,13c-86.073,18.77-153.2,45.771-241,60H679l-42-1c-4.485,2.978-2.6,27.5-1,34,26.557,11.586,68.667-1.648,100,3,108.441,16.086,183.6-29.938,264-50,150.17-37.473,380.1-13.57,502,29,22.34,7.8,43.8,13.863,63,25,31.43,18.233,62.67,47.352,112,40,23.34-3.478,53.99,4.443,73-4,0.33-1,.67-2,1-3-0.71-5.262-1.81-5.761-4-9-94.71-13.71-162.86-68.674-242-100C1418.57,474.786,1310.16,470.255,1190,469Zm803,21c32.85,8.053,23.94,28.711,41,41h36q19.005,5.5,38,11v2l-56-2-31,6c-0.67-.667-1.33-1.333-2-2C2014.32,519.937,2000.77,509.843,1993,490Zm-868,40-6,2-6,5c-0.32,18.613-.56,37.012,7,49,12.88,4.017,24.91.473,32-7-0.22-12.111,2.17-36.895-3-48Zm184,7-3,4c-4.54,10.955-2.21,37.8,0,47,9.07,6.878,23.77,10.712,36,4C1349.18,558.735,1342.73,535.705,1309,537ZM953,554c-7.2,3.176-12.647,2.918-16,10-3.749,6.689-2.588,31.683-1,40l3,1c10.758,5.109,24.93-1.164,28-8,4.639-9.653-1.223-26.163,2-37C965.776,554.326,962.412,553.5,953,554Zm536,17c-0.88,28.385-5.64,50.546,14,60,5.36,2.581,9.58,5.467,15,3C1526.15,594.408,1519.22,578.486,1489,571Zm-362,28-137,9c-75.606,13.119-138.416,28.386-210,42-28.385,5.4-94.141-4.113-116,8-4.49,14.651-1.949,48.822,9,55,9.662,8.211,37.493,3.407,52,2,43.563-4.225,87.28-8.25,127-18,50.614-12.424,99.479-25.489,154-36l114-10,92,1h47l82,6c41.49,6.178,109.14-8.73,144-16l-3-4C1375.84,612.424,1260.13,599.295,1127,599Zm29,75-110,8c-65.015,12.012-122.525,25.214-183,40l-83,13c-6.636,5.05-5.526,97.213-2,103,73.484,15.522,119.228-33.845,169-51v-1c-38.049.363-83.486,14.354-118,7q-0.5-1.5-1-3c-2.9-6.758-4.56-28.971-2-35,6.707-12.832,29.885-7.453,47-10,33.182-4.938,85.105-10,117-2,3.95,6.366,4.136,20.42,9,27,62.85-26.413,131.47-46.492,199-67q46.5-12.5,93-25c-0.67-1-1.33-2-2-3Zm565,21c38.27-.947,122.62-4.132,136,17,13.09,20.668-21.16,88.163-29,104l-112,220q-22.005,48-44,96v-2c-7.13-14.37,17.78-68.43,23-83,24.18-67.489,48.39-133.116,79-195,8.99-18.173,33.97-53.228,23-81-7.33-18.565-26.38-16.2-49-20-53.4-8.971-121.69-6.623-176,2-123.37,19.59-244.23,24.326-357,52q-74.985,18.5-150,37-51.99,14.5-104,29v-1c12.084-20.063,125.03-53.116,156-64,118.67-41.7,246.62-64.134,385-90l155-17Zm266,15c-98.61,149.872-201.33,311.91-283,476,0.33,0.67.67,1.33,1,2,7.07-3.28,13.21-16.9,18-23q30.99-36.99,62-74c65.97-83.46,143.38-160.58,199-254,20.96-35.2,29.55-88.252,6-127h-3ZM714,812c20.453,18.055-20.059,65.55-30,70v-2C668.872,848.928,704.5,827.41,714,812Zm830,16c34.81,1.352,49.35,28.486,35,63-4.21,10.127-12.92,20.634-22,26-20.79,12.282-108.55,29.948-124,9-35.34-47.9,38.43-80.1,70-90Q1523.505,832,1544,828Zm0,21c-21.44,8.445-73.32,13.959-67,44,1.64,7.781,3.01,12.74,9,16,12.32,12.406,76.18-9.152,81-21,4.71-11.571,1.4-32.839-8-37Zm-187,30c32.63-.206,41.24,34.7,28,64-7.37,16.3-108.99,45.516-126,25-37.04-44.687,34.48-74.979,65-84Zm-696,3c15.8,18.993-16.3,53.394-25,60h-1C632.117,907.644,646.634,900.353,661,882Zm691,16c-24.15,9.63-73.57,17.95-49,53,16.88,5.516,64.25-2.893,72-17C1386.17,913.67,1372.83,897.034,1352,898Zm-173,34c26.97,0.006,39.68,22.731,28,49-7.95,17.886-92.22,50.11-110,27C1057.88,957.146,1150.08,943.206,1179,932Zm-361,2h3c-2.687,76.71-7.351,159.88,12,225,14.31,48.16,37.01,87.19,54,129h-1c-49.311-31.22-115.268-35.76-174-9,0.667-1.33,1.333-2.67,2-4q21.5-15.495,43-31v-1c-82.163,4.3-181.433,57.66-243,89q-32,16.005-64,32,6.5-7.005,13-14,38.5-25.5,77-51,81.991-48,164-96c14.436-8.46,76.992-33.57,72-52-0.964-8.09-4.424-10.76-9-15-26.669,0-50.37,18.99-70,29a1162.938,1162.938,0,0,0-112,65q-30.5,20.505-61,41v-1c12.1-26.05,38.408-40.43,60-57,37.268-28.59,74.173-58.7,113-86,25.647-18.03,59.248-31.92,80-55-0.434-34.42-17.313-91.519,3-119C788.5,941.506,804.634,940.9,818,934Zm-203,6c16.778,13.291-16.864,48.576-22,50C589.787,961.253,603.03,955.218,615,940Zm568,8c-23.21,9.164-45.59,7.312-54,31a49.39,49.39,0,0,0,7,15c10.95,3.371,20.83-.55,31-3,24.29-5.85,37.2-9.965,29-39-1.67-1.333-3.33-2.667-5-4h-8ZM747,974c5.281,5.367,6.833,65.2,4,74q-30.5,20.505-61,41l-29,24v-2C630.124,1045.85,722.521,999.86,747,974Zm1169,69h2c-1.39,1.92-.1.6-2,2v-2ZM632,1078c5.459,10.86,5.769,43.5,4,55q-36.5,27-73,54h-1C560.638,1118.14,593.172,1107.81,632,1078Zm-91,85c3.294,3.5,2.657,10.49,4,16,7.7,31.6-31.111,48.54-51,59v-2C476.394,1197.41,527.52,1179.94,541,1163Zm-71,67c21.984,16.72-19.91,44.28-28,50C437.463,1249.09,456.057,1244.62,470,1230Zm-49,42c18.436,11.83-13.569,32.34-19,36h-1v-3C395.72,1286.11,413.2,1281.15,421,1272Zm80,150c48.154-.67,176.667,3.73,197,24q-59.994,5.505-120,11c-133.861,26.63-289.424,61.49-440,26-31.89-7.52-122.882-20.19-138-40q43.5,7.005,87,14l80,6q26,0.495,52,1l80-9q50.495-11.505,101-23,32.5-4.005,65-8Q483,1423,501,1422Zm1153,15c54.94-.32,63.71,57.02,118,67,28.69,5.28,55.03-6.41,77-12q31.5-4.995,63-10c74.72-12.17,143.06,20.59,199,31-0.67.33-1.33,0.67-2,1-24.28,9.8-87.24-6.45-122-1q-41.49,4.005-83,8c-52.85,10.35-129.26,32.55-184,9-32.58-14.02-50.63-61.72-77-87,0.33-.67.67-1.33,1-2Q1649,1439.005,1654,1437Zm-222,11c38.77-.59,121.17,2.19,146,15v1c-56.82,3.41-118.34,11.63-154,37-24.59,17.49-35.76,50.91-65,63-61.03,25.24-209.42,4.27-266-10-22.7-5.72-53.18-6.97-71-19,102.11,0.85,217.42,6.55,293-23,15.8-6.18,32.34-15.54,42-28,6.24-8.05,9.47-19.31,18-25C1389.99,1449.01,1412.86,1455.54,1432,1448Z"/>
</svg>
